<svg xmlns="http://www.w3.org/2000/svg" width="1100" height="720" viewBox="0 0 1100 720">
  <rect width="1100" height="720" fill="#f5f7fb"/>
  <text x="50" y="70" fill="#111827" font-family="Arial" font-size="42" font-weight="700">Skill Marketplace Mockup</text>
  <rect x="50" y="110" width="330" height="550" rx="24" fill="#ffffff" stroke="#e5e7eb"/>
  <text x="80" y="160" fill="#111827" font-family="Arial" font-size="26" font-weight="700">Add / Edit Skill</text>
  <rect x="80" y="195" width="270" height="42" rx="10" fill="#eef2ff"/>
  <text x="95" y="222" fill="#475569" font-family="Arial" font-size="18">Skill name</text>
  <rect x="80" y="255" width="270" height="42" rx="10" fill="#eef2ff"/>
  <text x="95" y="282" fill="#475569" font-family="Arial" font-size="18">Category</text>
  <rect x="80" y="315" width="270" height="42" rx="10" fill="#eef2ff"/>
  <text x="95" y="342" fill="#475569" font-family="Arial" font-size="18">Offer / Learn</text>
  <rect x="80" y="375" width="270" height="125" rx="10" fill="#eef2ff"/>
  <text x="95" y="410" fill="#475569" font-family="Arial" font-size="18">Description</text>
  <rect x="80" y="530" width="270" height="55" rx="12" fill="#2563eb"/>
  <text x="160" y="565" fill="#ffffff" font-family="Arial" font-size="18" font-weight="700">Create Skill</text>
  <rect x="420" y="110" width="630" height="125" rx="24" fill="#ffffff" stroke="#e5e7eb"/>
  <text x="455" y="160" fill="#111827" font-family="Arial" font-size="30" font-weight="700">Filter Skills</text>
  <text x="455" y="200" fill="#475569" font-family="Arial" font-size="20">Keyword, category, type, level</text>
  <rect x="420" y="270" width="300" height="170" rx="24" fill="#ffffff" stroke="#e5e7eb"/>
  <text x="455" y="320" fill="#1d4ed8" font-family="Arial" font-size="18" font-weight="700">OFFERING</text>
  <text x="455" y="355" fill="#111827" font-family="Arial" font-size="26" font-weight="700">React Hooks</text>
  <text x="455" y="395" fill="#475569" font-family="Arial" font-size="18">Demo Student • Programming</text>
  <rect x="750" y="270" width="300" height="170" rx="24" fill="#ffffff" stroke="#e5e7eb"/>
  <text x="785" y="320" fill="#1d4ed8" font-family="Arial" font-size="18" font-weight="700">WANTS TO LEARN</text>
  <text x="785" y="355" fill="#111827" font-family="Arial" font-size="26" font-weight="700">MongoDB Queries</text>
  <text x="785" y="395" fill="#475569" font-family="Arial" font-size="18">Student 4 • Intermediate</text>
</svg>
